
    <svg xmlns="http://www.w3.org/2000/svg" width="1200" height="900" viewBox="0 0 1200 900">
      <defs>
        <linearGradient id="bg-boat-lt-daqinghe-offshore-list" x1="0%" y1="0%" x2="100%" y2="100%">
          <stop offset="0%" stop-color="#071521"/>
          <stop offset="58%" stop-color="#1f5c73"/>
          <stop offset="100%" stop-color="#10283a"/>
        </linearGradient>
        <pattern id="grid-boat-lt-daqinghe-offshore-list" width="56" height="56" patternUnits="userSpaceOnUse">
          <path d="M 56 0 L 0 0 0 56" fill="none" stroke="rgba(237,244,247,0.05)" stroke-width="1"/>
        </pattern>
      </defs>
      <rect width="1200" height="900" fill="url(#bg-boat-lt-daqinghe-offshore-list)"/>
      <rect width="1200" height="900" fill="url(#grid-boat-lt-daqinghe-offshore-list)"/>
      <circle cx="1040" cy="124" r="144" fill="rgba(223,142,88,0.1)"/>
      <circle cx="160" cy="220" r="88" fill="rgba(237,244,247,0.08)"/>
      <g>
      <rect x="120" y="320" width="1160" height="360" rx="56" fill="rgba(237,244,247,0.08)"/>
      <rect x="220" y="380" width="860" height="240" rx="32" fill="rgba(7,21,33,0.34)" stroke="rgba(237,244,247,0.16)" stroke-width="4"/>
      <path d="M0 900 L0 680 C220 620 420 610 640 650 C820 682 1080 672 1400 620 L1400 900 Z" fill="rgba(223,142,88,0.18)"/>
    </g>
      <g><path d="M1000 220 L1180 220 L1180 360 L1000 360 Z" fill="rgba(223,142,88,0.16)" stroke="rgba(223,142,88,0.42)" stroke-width="4"/></g>
      <path d="M0 690 C 260 630, 460 720, 1200 580 L 1200 900 L 0 900 Z" fill="rgba(7,21,33,0.44)"/>
      <rect x="92" y="84" rx="24" ry="24" width="194" height="54" fill="rgba(7,21,33,0.42)" stroke="rgba(237,244,247,0.18)" stroke-width="2"/>
      <text x="122" y="120" fill="#edf4f7" font-family="PingFang SC, Microsoft YaHei, sans-serif" font-size="24" font-weight="600">出海钓</text>
      <rect x="302" y="84" rx="24" ry="24" width="204" height="54" fill="rgba(7,21,33,0.26)" stroke="rgba(223,142,88,0.24)" stroke-width="2"/>
      <text x="332" y="120" fill="#d7bb8f" font-family="PingFang SC, Microsoft YaHei, sans-serif" font-size="24" font-weight="600">乐亭</text>
      <rect x="92" y="162" rx="20" ry="20" width="336" height="48" fill="rgba(237,244,247,0.1)"/>
      <text x="120" y="194" fill="#edf4f7" font-family="PingFang SC, Microsoft YaHei, sans-serif" font-size="22">渔港 · 外海</text>
      <text x="92" y="626" fill="#edf4f7" font-family="PingFang SC, Microsoft YaHei, sans-serif" font-size="52" font-weight="700">乐亭大清河渔港外海3-10海里</text><text x="92" y="692" fill="#edf4f7" font-family="PingFang SC, Microsoft YaHei, sans-serif" font-size="52" font-weight="700">海域</text>
      <text x="92" y="802" fill="rgba(237,244,247,0.82)" font-family="PingFang SC, Microsoft YaHei, sans-serif" font-size="24">渔港外3-10海里海域</text>
      <rect x="92" y="824" rx="24" ry="24" width="420" height="52" fill="rgba(237,244,247,0.12)" stroke="rgba(237,244,247,0.18)" stroke-width="2"/>
      <text x="122" y="858" fill="#edf4f7" font-family="PingFang SC, Microsoft YaHei, sans-serif" font-size="22" font-weight="600">当前使用结构占位图</text>
    </svg>
  