
    <svg xmlns="http://www.w3.org/2000/svg" width="1400" height="1000" viewBox="0 0 1400 1000">
      <defs>
        <linearGradient id="bg-boat-cfd-longdao-ranch-hero" x1="0%" y1="0%" x2="100%" y2="100%">
          <stop offset="0%" stop-color="#071521"/>
          <stop offset="58%" stop-color="#1f5c73"/>
          <stop offset="100%" stop-color="#10283a"/>
        </linearGradient>
        <pattern id="grid-boat-cfd-longdao-ranch-hero" width="56" height="56" patternUnits="userSpaceOnUse">
          <path d="M 56 0 L 0 0 0 56" fill="none" stroke="rgba(237,244,247,0.05)" stroke-width="1"/>
        </pattern>
      </defs>
      <rect width="1400" height="1000" fill="url(#bg-boat-cfd-longdao-ranch-hero)"/>
      <rect width="1400" height="1000" fill="url(#grid-boat-cfd-longdao-ranch-hero)"/>
      <circle cx="1120" cy="160" r="180" fill="rgba(223,142,88,0.1)"/>
      <circle cx="220" cy="250" r="120" fill="rgba(237,244,247,0.08)"/>
      <g>
      <path d="M0 900 L0 610 C260 500 420 460 640 500 C840 534 1090 480 1400 330 L1400 900 Z" fill="rgba(237,244,247,0.08)"/>
      <path d="M360 550 L460 450 L560 550 L460 650 Z" fill="rgba(223,142,88,0.22)" stroke="rgba(223,142,88,0.38)" stroke-width="4"/>
      <path d="M590 510 L690 410 L790 510 L690 610 Z" fill="rgba(223,142,88,0.18)" stroke="rgba(223,142,88,0.34)" stroke-width="4"/>
      <path d="M820 470 L920 370 L1020 470 L920 570 Z" fill="rgba(223,142,88,0.14)" stroke="rgba(223,142,88,0.3)" stroke-width="4"/>
    </g>
      <g><circle cx="1080" cy="250" r="118" fill="rgba(223,142,88,0.14)" stroke="rgba(223,142,88,0.42)" stroke-width="4"/></g>
      <path d="M0 790 C 260 730, 460 820, 1400 680 L 1400 1000 L 0 1000 Z" fill="rgba(7,21,33,0.44)"/>
      <rect x="92" y="84" rx="24" ry="24" width="208" height="54" fill="rgba(7,21,33,0.42)" stroke="rgba(237,244,247,0.18)" stroke-width="2"/>
      <text x="122" y="120" fill="#edf4f7" font-family="PingFang SC, Microsoft YaHei, sans-serif" font-size="24" font-weight="600">出海钓</text>
      <rect x="302" y="84" rx="24" ry="24" width="248" height="54" fill="rgba(7,21,33,0.26)" stroke="rgba(223,142,88,0.24)" stroke-width="2"/>
      <text x="332" y="120" fill="#d7bb8f" font-family="PingFang SC, Microsoft YaHei, sans-serif" font-size="24" font-weight="600">曹妃甸</text>
      <rect x="92" y="162" rx="20" ry="20" width="392" height="48" fill="rgba(237,244,247,0.1)"/>
      <text x="120" y="194" fill="#edf4f7" font-family="PingFang SC, Microsoft YaHei, sans-serif" font-size="22">国家级海洋牧场 · 人工鱼礁区</text>
      <text x="92" y="694" fill="#edf4f7" font-family="PingFang SC, Microsoft YaHei, sans-serif" font-size="58" font-weight="700">曹妃甸龙岛外海10-20海里国家级海</text><text x="92" y="768" fill="#edf4f7" font-family="PingFang SC, Microsoft YaHei, sans-serif" font-size="58" font-weight="700">洋牧场</text>
      <text x="92" y="890" fill="rgba(237,244,247,0.82)" font-family="PingFang SC, Microsoft YaHei, sans-serif" font-size="26">龙岛周边10-20海里国家级海洋牧场海域</text>
      <rect x="104" y="912" rx="24" ry="24" width="474" height="56" fill="rgba(237,244,247,0.12)" stroke="rgba(237,244,247,0.18)" stroke-width="2"/>
      <text x="136" y="948" fill="#edf4f7" font-family="PingFang SC, Microsoft YaHei, sans-serif" font-size="24" font-weight="600">当前使用结构占位图</text>
    </svg>
  