
    <svg xmlns="http://www.w3.org/2000/svg" width="1200" height="900" viewBox="0 0 1200 900">
      <defs>
        <linearGradient id="bg-shore-lt-daqinghe-saltfield-estuary-list" x1="0%" y1="0%" x2="100%" y2="100%">
          <stop offset="0%" stop-color="#0a2031"/>
          <stop offset="58%" stop-color="#1d4360"/>
          <stop offset="100%" stop-color="#10283a"/>
        </linearGradient>
        <pattern id="grid-shore-lt-daqinghe-saltfield-estuary-list" width="56" height="56" patternUnits="userSpaceOnUse">
          <path d="M 56 0 L 0 0 0 56" fill="none" stroke="rgba(237,244,247,0.05)" stroke-width="1"/>
        </pattern>
      </defs>
      <rect width="1200" height="900" fill="url(#bg-shore-lt-daqinghe-saltfield-estuary-list)"/>
      <rect width="1200" height="900" fill="url(#grid-shore-lt-daqinghe-saltfield-estuary-list)"/>
      <circle cx="1040" cy="124" r="144" fill="rgba(223,142,88,0.1)"/>
      <circle cx="160" cy="220" r="88" fill="rgba(237,244,247,0.08)"/>
      <g>
      <path d="M0 900 L0 420 C230 390 420 420 630 520 C812 606 1080 650 1400 600 L1400 900 Z" fill="rgba(237,244,247,0.08)"/>
      <path d="M420 0 L630 900" stroke="rgba(223,142,88,0.24)" stroke-width="90"/>
      <path d="M760 0 L920 900" stroke="rgba(223,142,88,0.18)" stroke-width="70"/>
    </g>
      <g><path d="M1080 180 L1160 180 L1160 420 L1080 420 Z" fill="rgba(223,142,88,0.16)" stroke="rgba(223,142,88,0.42)" stroke-width="4"/></g>
      <path d="M0 690 C 260 630, 460 720, 1200 580 L 1200 900 L 0 900 Z" fill="rgba(7,21,33,0.44)"/>
      <rect x="92" y="84" rx="24" ry="24" width="194" height="54" fill="rgba(7,21,33,0.42)" stroke="rgba(237,244,247,0.18)" stroke-width="2"/>
      <text x="122" y="120" fill="#edf4f7" font-family="PingFang SC, Microsoft YaHei, sans-serif" font-size="24" font-weight="600">海岸钓</text>
      <rect x="302" y="84" rx="24" ry="24" width="204" height="54" fill="rgba(7,21,33,0.26)" stroke="rgba(223,142,88,0.24)" stroke-width="2"/>
      <text x="332" y="120" fill="#df8e58" font-family="PingFang SC, Microsoft YaHei, sans-serif" font-size="24" font-weight="600">乐亭</text>
      <rect x="92" y="162" rx="20" ry="20" width="336" height="48" fill="rgba(237,244,247,0.1)"/>
      <text x="120" y="194" fill="#edf4f7" font-family="PingFang SC, Microsoft YaHei, sans-serif" font-size="22">盐场闸口 · 入海口</text>
      <text x="92" y="626" fill="#edf4f7" font-family="PingFang SC, Microsoft YaHei, sans-serif" font-size="52" font-weight="700">乐亭大清河盐场外围入海口</text>
      <text x="92" y="802" fill="rgba(237,244,247,0.82)" font-family="PingFang SC, Microsoft YaHei, sans-serif" font-size="24">盐场外围排水闸口与入海口两岸堤岸</text>
      <rect x="92" y="824" rx="24" ry="24" width="420" height="52" fill="rgba(237,244,247,0.12)" stroke="rgba(237,244,247,0.18)" stroke-width="2"/>
      <text x="122" y="858" fill="#edf4f7" font-family="PingFang SC, Microsoft YaHei, sans-serif" font-size="22" font-weight="600">当前使用结构占位图</text>
    </svg>
  